<svg width="80" height="48" viewBox="0 0 80 48" fill="none" xmlns="http://www.w3.org/2000/svg">
<path fill-rule="evenodd" clip-rule="evenodd" d="M0 3.621C0 2.66687 0.395088 1.75181 1.09835 1.07714C1.80161 0.402465 2.75544 0.0234375 3.75 0.0234375H76.25C77.2446 0.0234375 78.1984 0.402465 78.9016 1.07714C79.6049 1.75181 80 2.66687 80 3.621C80 4.57513 79.6049 5.49019 78.9016 6.16486C78.1984 6.83954 77.2446 7.21857 76.25 7.21857H3.75C2.75544 7.21857 1.80161 6.83954 1.09835 6.16486C0.395088 5.49019 0 4.57513 0 3.621ZM0 24.0072C0 23.0531 0.395088 22.138 1.09835 21.4633C1.80161 20.7887 2.75544 20.4096 3.75 20.4096H76.25C77.2446 20.4096 78.1984 20.7887 78.9016 21.4633C79.6049 22.138 80 23.0531 80 24.0072C80 24.9613 79.6049 25.8764 78.9016 26.5511C78.1984 27.2257 77.2446 27.6048 76.25 27.6048H3.75C2.75544 27.6048 1.80161 27.2257 1.09835 26.5511C0.395088 25.8764 0 24.9613 0 24.0072ZM3.75 40.7958C2.75544 40.7958 1.80161 41.1749 1.09835 41.8495C0.395088 42.5242 0 43.4393 0 44.3934C0 45.3475 0.395088 46.2626 1.09835 46.9373C1.80161 47.6119 2.75544 47.991 3.75 47.991H76.25C77.2446 47.991 78.1984 47.6119 78.9016 46.9373C79.6049 46.2626 80 45.3475 80 44.3934C80 43.4393 79.6049 42.5242 78.9016 41.8495C78.1984 41.1749 77.2446 40.7958 76.25 40.7958H3.75Z" fill="#E4E4E4"/>
</svg>
